PathFileType	4	(X/Y/Z)	C:/Users/beibeiliu/ov580/test_trc/User3\sequence.28_training_dense_left.trc
DataRate	CameraRate	NumFrames	NumMarkers	Units	OrigDataRate	OrigDataStartFrame	OrigNumFrames
120	120	15	19	mm	120	158	252
Frame#	Time	ThumbCMC			ThumbMCP			ThumbIP			ThumbTip			IndexMCP			IndexPIP			IndexTip			MiddleMCP			MiddlePIP			MiddleTip			RingMCP			RingPIP			RingTip			PinkyMCP			PinkyPIP			PinkyTip			BackHand1			BackHand2			BackHand3	
		X0	Y0	Z0	X1	Y1	Z1	X2	Y2	Z2	X3	Y3	Z3	X4	Y4	Z4	X5	Y5	Z5	X6	Y6	Z6	X7	Y7	Z7	X8	Y8	Z8	X9	Y9	Z9	X10	Y10	Z10	X11	Y11	Z11	X12	Y12	Z12	X13	Y13	Z13	X14	Y14	Z14	X15	Y15	Z15	X16	Y16	Z16	X17	Y17	Z17	X18	Y18	Z18	
157	1.30833	-127.91	-19.9801	25.9151	-113.991	-24.892	1.91765	-93.5001	-22.6222	-24.0931	-84.5135	-24.6402	-44.4295	-147.846	17.7352	-42.0967	-149.655	24.1809	-68.6569	-148.476	24.0864	-98.0878	-168.887	5.83116	-54.3715	-157.234	-8.67403	-85.5732	-148.535	-47.9707	-88.0912	-186.907	-4.90993	-51.8271	-179.641	-12.5683	-78.923	-172.097	-37.2036	-97.917	-202.648	-20.2567	-42.4775	-202.516	-25.5872	-61.9864	-202.088	-32.7728	-84.4409	-192.896	-2.10594	1.47011	-194.304	-10.05	32.4914	-158.079	2.67319	21.7317	
158	1.31667	-130.496	-21.3956	23.0957	-111.087	-24.2268	-0.524136	-96.7349	-25.0152	-21.7559	-83.329	-26.7393	-40.7483	-146.801	17.1733	-43.8759	-143.196	22.8267	-72.0196	-140.466	18.1339	-98.1851	-166.532	12.3582	-56.3062	-160.873	2.68761	-83.9315	-152.53	-34.7808	-91.2514	-186.119	-0.438163	-53.7791	-180.224	-8.37931	-79.4673	-175.332	-32.3734	-95.8453	-203.265	-19.4129	-43.4765	-204.839	-27.2989	-61.9823	-201.013	-38.734	-86.1848	-190.352	-3.5483	5.15775	-195.035	-9.83801	33.362	-158.535	3.1396	20.9073	
159	1.325	-129.443	-23.3462	26.0969	-110.003	-24.4678	-0.649491	-93.4431	-23.6721	-24.1925	-82.0508	-26.9832	-43.02	-140.648	15.1766	-40.7207	-135.997	21.8528	-74.7668	-133.901	12.414	-96.6931	-171.336	13.6864	-49.4547	-167.82	6.6486	-83.9225	-155.552	-28.8895	-92.5612	-187.558	-0.169388	-49.2448	-180.797	-5.34233	-79.0591	-173.053	-32.4077	-93.3031	-200.709	-18.2595	-42.091	-199.609	-26.9193	-63.8674	-196.063	-38.8593	-83.9172	-191.619	-2.21558	5.70487	-194.776	-8.62444	32.2443	-161.085	1.76341	19.5572	
160	1.33333	-131.954	-23.8786	26.8212	-112.124	-25.083	1.92659	-92.1143	-25.3434	-21.6922	-81.139	-27.5558	-45.5091	-144.181	16.8114	-42.2694	-134.419	22.7142	-70.8361	-126.928	8.20686	-98.3279	-171.777	16.7655	-49.8342	-169.867	11.2633	-82.1276	-159.882	-26.5961	-92.9633	-186.466	0.766524	-46.0203	-185.957	-7.75141	-80.5903	-175.932	-32.2665	-90.5433	-202.581	-20.7255	-40.772	-199.848	-31.9287	-68.2909	-187.98	-48.485	-83.9602	-188.235	-0.749479	1.9717	-190.866	-10.0468	32.6758	-158.798	2.21812	22.4266	
161	1.34167	-131.807	-22.9015	26.1733	-108.65	-26.0167	2.78889	-92.9118	-26.2634	-22.3518	-82.0502	-29.3105	-44.4898	-140.197	16.4899	-39.3096	-131.38	24.3115	-68.0715	-126.065	5.41259	-95.719	-173.322	14.7047	-45.4476	-173.827	14.1022	-80.0922	-162.396	-20.5892	-93.453	-188.512	2.4345	-48.3822	-182.828	-4.20315	-77.5359	-173.77	-35.9248	-87.6157	-201.306	-21.0027	-39.8998	-196.217	-30.5603	-64.7005	-187.735	-54.4157	-77.379	-190.045	-2.71582	1.25251	-195.916	-10.7558	29.7577	-162.875	1.23031	19.3179	
162	1.35	-132.377	-21.4518	25.1521	-109.706	-25.3038	1.59375	-91.3397	-28.0919	-18.7854	-85.2326	-31.4975	-41.9478	-140.598	18.698	-38.2471	-134.041	24.0678	-72.7709	-125.25	4.99587	-95.1942	-174.124	18.7619	-46.6067	-170.127	16.3183	-81.6063	-158.795	-17.8753	-92.0538	-185.154	3.469	-50.3901	-184.104	-5.9773	-77.0523	-173.033	-35.0616	-84.7866	-200.261	-19.9517	-43.7398	-196.048	-35.1644	-66.0713	-179.991	-60.8889	-72.349	-190.758	-2.84547	3.34405	-194.581	-9.18846	29.808	-158.542	2.29555	22.5985	
163	1.35833	-130.508	-20.1046	24.971	-111.901	-25.4942	4.74781	-91.2973	-26.6643	-22.6925	-85.4889	-33.3654	-42.4794	-143.21	19.2545	-38.6945	-136.264	25.6896	-71.3211	-127.13	7.18153	-91.6399	-173.091	19.3651	-45.7369	-174.384	17.7279	-77.408	-157.975	-15.7404	-89.0688	-186.727	0.929565	-47.011	-182.229	-5.53817	-76.6537	-166.804	-36.8006	-80.4316	-196.876	-21.0877	-41.8908	-190.95	-34.8519	-65.2543	-178.773	-58.9252	-66.4498	-192.563	-2.04057	4.31624	-192.711	-9.66483	32.8425	-159.414	1.44072	23.6245	
164	1.36667	-132.661	-20.0451	24.2684	-112.236	-25.9307	4.1409	-96.3912	-27.8522	-22.4798	-87.6262	-33.7595	-44.543	-143.088	22.1777	-38.876	-134.714	27.5635	-69.5588	-127.667	6.10323	-88.0303	-171.155	19.5888	-43.6376	-171.729	17.1228	-78.6337	-157.818	-19.6291	-84.7853	-185.362	1.56792	-48.6106	-182.869	-9.04034	-77.6395	-166.147	-36.1114	-77.1646	-198.564	-21.9608	-41.9869	-185.704	-35.514	-65.4104	-169.617	-59.9898	-62.1223	-192.548	-4.41757	3.37949	-197.859	-11.6947	33.1899	-161.568	3.79271	20.1941	
165	1.375	-131.4	-17.9864	23.943	-114.036	-24.2642	1.73892	-96.1483	-26.8449	-24.8935	-93.0614	-33.9198	-47.8505	-145.356	21.8293	-35.6917	-140.613	25.8564	-71.2218	-131.48	1.77214	-86.4748	-175.343	19.4506	-45.8449	-170.876	15.7561	-80.3516	-152.627	-17.9175	-82.0474	-182.132	3.06945	-50.099	-176.77	-10.8636	-78.8098	-162.351	-37.453	-73.1646	-193.988	-19.7327	-45.0213	-188.231	-36.3979	-65.8091	-170.172	-57.4103	-58.6922	-195.187	-2.5238	2.83279	-196.293	-8.84148	29.6007	-166.353	4.2538	20.4182	
166	1.38333	-129.959	-17.0274	23.9198	-110.545	-23.3185	1.38734	-92.6046	-24.7496	-25.0088	-98.0166	-32.9744	-49.1913	-148.044	21.8435	-36.4915	-143.253	25.0819	-71.8055	-127.476	-3.50271	-81.5433	-174.895	22.5081	-48.0857	-168.942	15.8714	-80.1931	-151.782	-19.6029	-77.6223	-186.618	1.12602	-50.0742	-174.946	-10.0275	-77.1303	-163.054	-39.0818	-68.1857	-194.528	-20.639	-47.9599	-179.073	-35.1588	-64.7504	-167.908	-59.4005	-57.0371	-195.854	-3.42075	2.52059	-195.053	-10.9582	30.5756	-161.719	5.04037	19.2088	
167	1.39167	-130.946	-17.2349	26.6254	-111.732	-21.8482	-2.32457	-94.2109	-25.3168	-23.708	-96.1962	-33.4747	-52.211	-151.276	25.6692	-40.2476	-146.712	22.3807	-73.1187	-131.695	-6.51916	-75.9744	-175.628	20.6685	-48.8759	-168.326	16.1802	-79.6219	-152.405	-20.8371	-72.845	-181.993	1.62517	-49.0493	-173.214	-12.0162	-78.0603	-159.287	-39.6837	-62.9284	-191.348	-17.4965	-44.5254	-181.087	-33.1727	-66.3282	-167.895	-58.3276	-57.2531	-194.867	-2.1234	-0.408676	-196.47	-12.3542	28.921	-162.591	5.46601	17.9355	
168	1.4	-132.949	-16.3871	21.514	-112.005	-23.1383	0.865784	-98.926	-25.9903	-28.4983	-96.1377	-34.0643	-53.0854	-151.622	24.4747	-39.8164	-148.222	19.5764	-73.5661	-132.886	-9.05173	-72.9757	-172.186	21.6908	-50.7975	-166.084	13.9279	-81.0833	-147.884	-23.0005	-68.4098	-181.004	2.90526	-55.6793	-167.773	-11.8332	-77.1984	-156.853	-36.2765	-62.6749	-191.092	-16.9126	-45.8215	-175.406	-30.6532	-66.7854	-164.296	-52.2116	-55.925	-193.38	-3.64558	0.552168	-198.194	-13.2498	26.4628	-163.92	7.12702	20.5238	
169	1.40833	-129.891	-16.3345	26.2038	-114.673	-21.8029	-3.66417	-100.929	-25.1873	-30.1243	-99.9934	-34.4084	-50.8773	-152.095	24.2893	-40.0069	-145.235	21.1506	-72.7976	-129.882	-6.2611	-70.2865	-174.54	18.4666	-50.2681	-160.889	11.345	-81.7343	-145.423	-20.6126	-69.1088	-180.948	1.45545	-51.0933	-171.308	-14.3387	-78.1047	-155.495	-40.5185	-56.8798	-187.141	-16.149	-45.7166	-176.964	-32.6277	-66.4254	-164.524	-54.6322	-53.6517	-191.716	-4.35525	0.354328	-196.795	-11.2251	28.7329	-166.703	6.5242	19.0248	
170	1.41667	-130.638	-13.2279	21.9505	-109.482	-21.5972	-1.03049	-98.252	-25.926	-25.6634	-101.691	-36.0233	-54.1402	-153.632	24.2203	-43.4201	-146.227	19.7094	-72.5827	-129.189	-8.88441	-68.3069	-174.591	18.3044	-53.595	-159.003	9.16665	-82.7325	-147.739	-22.6857	-66.6905	-181.8	-0.127975	-57.5193	-165.965	-17.6807	-77.0612	-154.103	-38.1969	-58.2996	-190.418	-20.2892	-47.2212	-173.944	-32.0954	-64.813	-160.295	-55.596	-47.1275	-194.907	-7.69849	-1.54974	-199.797	-13.6897	26.524	-168.108	6.28125	19.5321	
171	1.425	-131.043	-12.7506	24.1027	-113.787	-21.7408	-2.0933	-101.7	-25.6733	-29.8477	-102.844	-34.9524	-49.9646	-152.316	24.4781	-44.4557	-146.348	17.9523	-72.4822	-127.693	-10.2594	-67.3822	-172.346	17.1421	-53.9712	-160.067	9.21962	-81.7108	-142.76	-24.2774	-62.968	-178.72	-0.961064	-54.3945	-167.581	-16.2603	-77.2601	-151.726	-40.0052	-53.1923	-189.553	-22.5736	-46.4972	-171.422	-36.4109	-65.6266	-159.286	-54.9945	-48.8585	-194.558	-6.42519	-5.6072	-198.84	-13.6215	28.6238	-164.474	6.52947	20.2303	
